<?xml version="1.0" ?><svg data-name="Layer 1" id="Layer_1" viewBox="0 0 272 272" xmlns="http://www.w3.org/2000/svg"><defs><style>.cls-1{fill:#ffeb3c;}.cls-2{fill:#fff176;}.cls-3{fill:#efefef;}.cls-4{fill:#fec107;}.cls-5{fill:#ffd54f;}.cls-6{fill:#ffefef;}</style></defs><title/><circle class="cls-1" cx="184" cy="56" r="48"/><circle class="cls-2" cx="184" cy="56" r="8"/><path class="cls-2" d="M158.73,36.39l7.07,7.07A5,5,0,0,1,162.27,52h-10a5,5,0,0,1-4.79-6.45,37.61,37.61,0,0,1,3.35-8A5,5,0,0,1,158.73,36.39Z"/><path class="cls-2" d="M180,24.25v10a5,5,0,0,1-8.54,3.54l-7.07-7.07a5,5,0,0,1,1.13-7.93,37.61,37.61,0,0,1,8-3.35A5,5,0,0,1,180,24.25Z"/><path class="cls-2" d="M168.69,68.54l-8.87,8.87a5,5,0,0,1-7.77-.87,37.68,37.68,0,0,1-4.6-10.12,5,5,0,0,1,4.8-6.42h12.9A5,5,0,0,1,168.69,68.54Z"/><path class="cls-2" d="M180,80.62v7.13a5,5,0,0,1-6.36,4.82,37.66,37.66,0,0,1-5.92-2.23,5,5,0,0,1-1.43-8.08l5.17-5.17A5,5,0,0,1,180,80.62Z"/><path class="cls-2" d="M196.54,74.2l7.07,7.07a5,5,0,0,1-1.13,7.93,37.61,37.61,0,0,1-8,3.35A5,5,0,0,1,188,87.75v-10A5,5,0,0,1,196.54,74.2Z"/><path class="cls-2" d="M220.54,66.45a37.61,37.61,0,0,1-3.35,8,5,5,0,0,1-7.93,1.13l-7.07-7.07A5,5,0,0,1,205.73,60h10A5,5,0,0,1,220.54,66.45Z"/><path class="cls-2" d="M205.41,31.82l-8.87,8.87A5,5,0,0,1,188,37.16V24.26a5,5,0,0,1,6.42-4.8,37.68,37.68,0,0,1,10.12,4.6A5,5,0,0,1,205.41,31.82Z"/><path class="cls-2" d="M215.75,52h-7.13a5,5,0,0,1-3.54-8.54l5.17-5.17a5,5,0,0,1,8.08,1.43,37.66,37.66,0,0,1,2.23,5.92A5,5,0,0,1,215.75,52Z"/><path class="cls-3" d="M89,56h94a5,5,0,0,1,5,5V249a15,15,0,0,1-15,15H99a15,15,0,0,1-15-15V61A5,5,0,0,1,89,56Z"/><rect class="cls-4" height="224" transform="translate(-27.89 38.16) rotate(-15)" width="8" x="127" y="13"/><path class="cls-5" d="M83,152H196a0,0,0,0,1,0,0v86a0,0,0,0,1,0,0H83a5,5,0,0,1-5-5V157A5,5,0,0,1,83,152Z" transform="translate(-58 332) rotate(-90)"/><rect class="cls-6" height="104" rx="4" ry="4" width="8" x="160" y="112"/><rect class="cls-3" height="16" rx="4" ry="4" width="8" x="160" y="224"/></svg>