<?xml version="1.0" ?><svg style="enable-background:new 0 0 512 512;" version="1.1" viewBox="0 0 512 512" xml:space="preserve" xmlns="http://www.w3.org/2000/svg" xmlns:xlink="http://www.w3.org/1999/xlink"><style type="text/css">
	.st0{display:none;}
	.st1{display:inline;}
	.st2{fill:none;stroke:#B3B3B3;stroke-miterlimit:10;}
	.st3{fill:none;stroke:#ED1C24;stroke-miterlimit:10;}
	.st4{fill:#F9C04A;}
	.st5{fill:#FFFFFF;stroke:#000000;stroke-width:10;stroke-linecap:round;stroke-linejoin:round;stroke-miterlimit:10;}
	.st6{fill:#DEF6FC;}
	.st7{fill:#FFDA9F;}
	.st8{fill:#FFFFFF;}
	.st9{fill:#FF5751;}
	.st10{fill:#FF908A;}
	.st11{fill:#133260;}
	.st12{fill:#7782BB;}
	.st13{fill:#96A5D6;}
	.st14{fill:#FF5741;}
	.st15{fill:#43527A;}
	.st16{fill:#5E7296;}
	.st17{fill:none;stroke:#133260;stroke-width:9;stroke-linecap:round;stroke-linejoin:round;stroke-miterlimit:10;}
	.st18{fill:#83D689;}
	.st19{fill:#B5F4B8;}
	.st20{fill:#9BC5FF;}
	.st21{fill:#B8D8FF;}
	.st22{fill:#F24133;}
	.st23{fill:#589FFF;}
	.st24{fill:#7180BC;}
	.st25{fill:#93A3D8;}
	.st26{fill:#FF8103;}
	.st27{fill:#FF9D4D;}
	.st28{fill:#BC8D66;}
	.st29{fill:#CEA282;}
	.st30{fill:#FFDDA1;}
	.st31{fill:#FFF1DC;}
	.st32{fill:#7F6674;}
	.st33{fill:#937A89;}
	.st34{fill:#04398E;}
	.st35{fill:#A6D1FF;}
	.st36{fill:#EAA62D;}
	.st37{fill:#C5DFFF;}
	.st38{fill:#D6A47F;}
	.st39{fill:#99A4D6;}
</style><g class="st0" id="Layer_31"><g class="st1"><g><g><ellipse class="st2" cx="256" cy="256" rx="248.1" ry="248.3"/><path class="st2" d="M398.8,504.5H113.2c-18.8,0-34.1-15.3-34.1-34.1V41.6c0-18.8,15.3-34.1,34.1-34.1h285.5      c18.8,0,34.1,15.3,34.1,34.1v428.9C432.9,489.3,417.6,504.5,398.8,504.5z"/><path class="st2" d="M7.9,399.8V112.2c0-16.4,13.3-29.8,29.8-29.8h436.7c16.4,0,29.8,13.3,29.8,29.8v287.6      c0,16.4-13.3,29.8-29.8,29.8H37.6C21.2,429.6,7.9,416.2,7.9,399.8z"/><path class="st2" d="M440.4,469.9H71.6c-16.4,0-29.8-13.3-29.8-29.8V71.9c0-16.4,13.3-29.8,29.8-29.8h368.8      c16.4,0,29.8,13.3,29.8,29.8v368.2C470.2,456.5,456.8,469.9,440.4,469.9z"/></g><rect class="st3" height="497" transform="matrix(-1.836970e-16 1 -1 -1.836970e-16 512 5.684342e-14)" width="497" x="7.5" y="7.5"/></g></g></g><g id="Layer_32"><g><path class="st15" d="M382.5,41.4L273,42.9c-16.8,0.2-32.8,7-44.7,18.9L13.6,276.5c-12,12-12,31.5,0,43.5l141.5,141.5    c12,12,31.5,12,43.5,0l214.7-214.7c11.9-11.9,18.6-27.9,18.9-44.7l1.5-109.5C434,64.2,410.9,41.1,382.5,41.4z M392.6,123.1    c-11.2,11.2-29.4,11.2-40.6,0c-11.2-11.2-11.2-29.4,0-40.6c11.2-11.2,29.4-11.2,40.6,0C403.8,93.7,403.8,111.9,392.6,123.1z"/><g><path class="st16" d="M35.1,298L249.8,83.3c11.9-11.9,27.9-18.6,44.7-18.9L404,63c8.6-0.1,16.8,1.9,23.9,5.7     c-8.5-16.3-25.7-27.4-45.5-27.2L273,42.9c-16.8,0.2-32.8,7-44.7,18.9L13.6,276.5c-12,12-12,31.5,0,43.5l21.5,21.5     C23.1,329.5,23.1,310,35.1,298z"/></g><g><path class="st14" d="M251.3,101.9L56,297.1c-4.8,4.8-4.8,12.6,0,17.4l104.6,104.6c4.8,4.8,12.6,4.8,17.4,0l195.3-195.3     c4.8-4.8,4.8-12.6,0-17.4L268.7,101.9C263.9,97.1,256.1,97.1,251.3,101.9z"/><path class="st10" d="M268.7,101.9c-4.8-4.8-12.6-4.8-17.4,0L56,297.1c-4.8,4.8-4.8,12.6,0,17.4l9.2,9.2l212.6-212.6L268.7,101.9     z"/><g><path class="st34" d="M172.1,327.6c-15.7-15.7-34.4,17.1-53.4-1.9c-11.5-11.5-5.1-24,2.7-31.8c5.6-5.6,15.3-12.1,18.9-8.5      c1.3,1.3,2.6,4.6,0.8,6.4c-1.8,1.8-7,1.1-13.9,7.9c-5.8,5.8-8.5,12.8-2.5,18.8c13.2,13.2,32.1-19.4,53.4,1.9      c11.2,11.2,9.2,23.6-0.7,33.6c-10.1,10.1-22.1,11.1-25.4,7.7c-1.6-1.6-2.2-5-0.7-6.5c2.3-2.3,10.5,2.2,19.7-7      C177.5,341.6,178.6,334.1,172.1,327.6z"/><path class="st34" d="M195.4,329.2c-0.2-0.2-0.3-0.5-0.5-0.8l-36.1-68c-1.1-2,0-4.5,1.8-6.3c1.8-1.8,4.4-2.8,6.3-1.8l68,36.1      c0.2,0.2,0.5,0.3,0.6,0.5c1.6,1.6,0.6,5-1.3,6.9c-1.1,1.1-2.5,1.6-3.8,0.9l-15.1-8.2l-20.6,20.6l8.2,15.1      c0.7,1.3,0.2,2.7-0.9,3.9C200.4,329.7,197.1,330.8,195.4,329.2z M208.5,284.5l-38.1-20.7L191,302L208.5,284.5z"/><path class="st34" d="M248.4,281.7c-1.5,1.5-3.8,2.2-5.3,0.6l-52.6-52.6c-1.6-1.6-0.6-3.9,1-5.6c1.6-1.6,4-2.6,5.6-1l49,49      l21.4-21.4c1.4-1.4,3.6-0.6,5.1,0.9c1.5,1.5,2.3,3.7,0.9,5.1L248.4,281.7z"/><path class="st34" d="M257.3,210.1l12.2-12.2c1.4-1.4,3.6-0.9,5.1,0.5c1.3,1.3,2,3.4,0.4,4.9l-12.2,12.2l20,20l24.3-24.3      c1.4-1.4,3.7-0.9,5.3,0.8c1.4,1.4,2.2,3.6,0.6,5.2L285.1,245c-1.5,1.5-3.8,2.2-5.3,0.6l-52.5-52.5c-1.6-1.6-0.9-3.8,0.6-5.3      l27.9-27.9c1.6-1.6,3.8-0.8,5.2,0.6c1.6,1.6,2.2,3.9,0.8,5.3l-24.3,24.3L257.3,210.1z"/></g></g><g><path class="st11" d="M510.8,228.2c-3.2-19.6-12.5-42.4-26.3-64.2c-13.8-21.8-30.2-40-46.6-51.3l0.3-20c0.2-15-5.5-29-16.1-39.6     c-10.6-10.6-24.7-16.3-39.6-16.1L273,38.4c-18.1,0.2-35.1,7.4-47.9,20.2L10.4,273.3C3.7,280,0,288.8,0,298.3s3.7,18.3,10.4,25     l141.5,141.5c6.7,6.7,15.6,10.4,25,10.4c9.4,0,18.3-3.7,25-10.4L416.6,250c4.2-4.2,7.9-9,10.8-14c9.2,10.8,18.9,20,28.6,26.7     c11.3,7.9,21.8,11.9,30.7,11.9c4.8,0,9.1-1.2,12.8-3.5C510.2,264.4,514.2,249.1,510.8,228.2z M410.1,243.6L195.4,458.3     c-10.2,10.2-26.9,10.2-37.1,0L16.8,316.8c-10.2-10.2-10.2-26.9,0-37.1L231.5,65c11.1-11.1,25.9-17.3,41.5-17.5L382.6,46     c0.2,0,0.4,0,0.6,0c12.3,0,23.7,4.8,32.4,13.4c8.8,8.8,13.6,20.6,13.4,33.1L427.6,202c-0.1,5.6-0.9,11.1-2.5,16.4     c-2.7-3.8-5.4-7.7-8.1-11.9c-13.1-20.7-22-42.3-25-60.8c-0.9-5.7-1.3-10.9-1-15.5c1.7-1.2,3.3-2.5,4.7-3.9c13-13,13-34.1,0-47.1     c-6.3-6.3-14.6-9.7-23.5-9.7c-8.9,0-17.2,3.5-23.5,9.7c-13,13-13,34.1,0,47.1c6.3,6.3,14.6,9.7,23.5,9.7c3.3,0,6.5-0.5,9.6-1.4     c0.1,3.9,0.5,8.1,1.2,12.5c3.2,19.6,12.5,42.4,26.3,64.2c3.7,5.9,7.7,11.6,11.8,17C418.4,233.9,414.6,239.1,410.1,243.6z      M372.3,126.9c-6.5,0-12.5-2.5-17.1-7.1c-9.4-9.4-9.4-24.7,0-34.2c4.6-4.6,10.6-7.1,17.1-7.1c6.5,0,12.5,2.5,17.1,7.1     c4.9,4.9,7.3,11.4,7.1,17.8c-0.7,0-1.5,0.3-2.1,0.7c-6.3,4-10.3,11-11.8,20.4C379.4,126.2,375.9,126.9,372.3,126.9z M494.7,263.4     c-12,7.6-38.1-5.5-63-36.3c3.2-7.8,4.9-16.3,5-24.9l1-78.3c13.6,10.7,27.5,26.7,39,44.9C505.4,214.1,509.1,254.3,494.7,263.4z"/><path class="st11" d="M271.9,98.7c-3.2-3.2-7.4-4.9-11.9-4.9c-4.5,0-8.7,1.8-11.9,4.9v0L52.8,293.9c-3.2,3.2-4.9,7.4-4.9,11.9     c0,4.5,1.8,8.7,4.9,11.9l104.6,104.6c3.3,3.3,7.6,4.9,11.9,4.9s8.6-1.6,11.9-4.9l195.3-195.3c3.2-3.2,4.9-7.4,4.9-11.9     c0-4.5-1.8-8.7-4.9-11.9L271.9,98.7z M370,220.6L174.7,415.9c-1.5,1.5-3.4,2.3-5.5,2.3s-4-0.8-5.5-2.3L59.2,311.3     c-1.5-1.5-2.3-3.4-2.3-5.5c0-2.1,0.8-4,2.3-5.5l195.3-195.3v0c1.5-1.5,3.4-2.3,5.5-2.3c2.1,0,4,0.8,5.5,2.3L370,209.7     c1.5,1.5,2.3,3.4,2.3,5.5C372.3,217.2,371.5,219.2,370,220.6z"/></g></g></g></svg>