<?xml version="1.0" ?><svg id="Layer_1_1_" style="enable-background:new 0 0 64 64;" version="1.1" viewBox="0 0 64 64" xml:space="preserve" xmlns="http://www.w3.org/2000/svg" xmlns:xlink="http://www.w3.org/1999/xlink"><g><g><path d="M60,22l-2.722,36.299C57.121,60.386,55.382,62,53.289,62H40.711c-2.093,0-3.832-1.614-3.989-3.701    L34,22H60z" style="fill:#FFC729;"/><path d="M34,18h26c1.105,0,2,0.895,2,2v0c0,1.105-0.895,2-2,2H34c-1.105,0-2-0.895-2-2v0    C32,18.895,32.895,18,34,18z" style="fill:#E6E9ED;"/><polygon points="56,18 54,12 40,12 38,18   " style="fill:#FCD770;"/><polygon points="44,12 45,2 49,2 50,12   " style="fill:#E6E9ED;"/><polygon points="49,2 45,2 44.6,6 49.4,6   " style="fill:#CCD1D9;"/><ellipse cx="47" cy="39" rx="11" ry="8" style="fill:#E6E9ED;"/><rect height="6" style="fill:#E6E9ED;" width="16" x="6" y="12"/><path d="M10,18L10,18c0,5.849-1.853,11.548-5.294,16.279l-1.559,2.143C2.402,37.448,2,38.683,2,39.951V58    c0,2.209,1.791,4,4,4h16c2.209,0,4-1.791,4-4V39.951c0-1.268-0.402-2.504-1.148-3.529l-1.559-2.143C19.853,29.548,18,23.849,18,18    v0H10z" style="fill:#FF826E;"/><polygon points="11,12 12,2 16,2 17,12   " style="fill:#FF826E;"/><polygon points="11.6,6 16.4,6 16,2 12,2   " style="fill:#FC6E51;"/><rect height="16" style="fill:#FCD770;" width="16" x="6" y="40"/><path d="M57,56H37l-0.434,0.217l0.156,2.082C36.879,60.386,38.618,62,40.711,62h12.578    c2.093,0,3.832-1.614,3.989-3.701l0.172-2.29C57.174,56,57,56,57,56z" style="fill:#FFEAA7;"/><polygon points="44.2,10 44,12 50,12 49.8,10   " style="fill:#CCD1D9;"/><polygon points="38.667,16 38,18 56,18 55.333,16   " style="fill:#FFC729;"/><polygon points="59.85,24 60,22 34,22 34.15,24   " style="fill:#F2B111;"/><path d="M18.079,20C18.031,19.336,18,18.669,18,18h-8c0,0.669-0.031,1.336-0.079,2H18.079z" style="fill:#FC6E51;"/></g><g><path d="M60,17h-3.279l-0.667-2H59c2.206,0,4-1.794,4-4s-1.794-4-4-4h-8.495l-0.6-6h-5.81l-1,10h-3.816l-2,6H34    c-1.654,0-3,1.346-3,3c0,1.324,0.868,2.437,2.06,2.834l2.666,35.54C35.919,60.968,38.11,63,40.711,63h12.577    c2.602,0,4.792-2.032,4.986-4.626l2.666-35.54C62.132,22.437,63,21.324,63,20C63,18.346,61.654,17,60,17z M59,9    c1.103,0,2,0.897,2,2s-0.897,2-2,2h-3.613l-0.667-2h-3.816l-0.2-2H59z M48.095,3l0.2,2h-2.59l0.2-2H48.095z M45.505,7h2.99l0.4,4    h-3.79L45.505,7z M40.721,13h12.559l1.333,4H39.388L40.721,13z M36.614,43.488C38.691,46.18,42.564,48,47,48    s8.309-1.82,10.386-4.512L56.522,55H37.478L36.614,43.488z M37,39c0-3.86,4.486-7,10-7s10,3.14,10,7s-4.486,7-10,7S37,42.86,37,39    z M47,30c-4.911,0-9.137,2.226-10.992,5.402L35.078,23h23.845l-0.93,12.402C56.137,32.226,51.911,30,47,30z M53.289,61H40.711    c-1.561,0-2.875-1.219-2.992-2.775L37.628,57h18.744l-0.092,1.225C56.164,59.781,54.85,61,53.289,61z M60,21H34    c-0.551,0-1-0.449-1-1s0.449-1,1-1h26c0.551,0,1,0.449,1,1S60.551,21,60,21z"/><rect height="2" width="16" x="39" y="38"/><rect height="2" width="8" x="43" y="34"/><rect height="2" width="8" x="43" y="42"/><path d="M24.102,33.69c-3.141-4.318-4.868-9.38-5.063-14.69H23v-8h-5.095l-1-10h-5.81l-1,10H5v8h3.961    c-0.196,5.31-1.922,10.372-5.063,14.69l-1.56,2.144C1.463,37.039,1,38.462,1,39.951V58c0,2.757,2.243,5,5,5h16    c2.757,0,5-2.243,5-5V39.951c0-1.489-0.463-2.913-1.339-4.118L24.102,33.69z M15.095,3l0.2,2h-2.59l0.2-2H15.095z M12.505,7h2.99    l0.4,4h-3.79L12.505,7z M7,13h14v4H7V13z M25,58c0,1.654-1.346,3-3,3H6c-1.654,0-3-1.346-3-3V39.951    c0-1.063,0.331-2.081,0.956-2.941l1.559-2.143C8.906,30.205,10.765,24.736,10.961,19h6.078c0.196,5.736,2.055,11.205,5.446,15.867    l1.559,2.143C24.669,37.871,25,38.888,25,39.951V58z"/><path d="M5,57h18V39H5V57z M7,41h14v14H7V41z"/><rect height="2" width="10" x="9" y="43"/><rect height="2" width="10" x="9" y="47"/><rect height="2" width="10" x="9" y="51"/></g></g></svg>